<svg preserveAspectRatio="none" overflow="visible" style="display: block;" width="26.1826" height="28.5" viewBox="0 0 26.1826 28.5" fill="none" xmlns="http://www.w3.org/2000/svg">
<g id="Vector">
<path d="M16.8997 28.1147C15.869 28.3666 14.793 28.5 13.6863 28.5C6.12748 28.5 0 22.2757 0 14.5976C0 6.91946 6.12748 0.695122 13.6863 0.695122C14.793 0.695122 15.869 0.82854 16.8997 1.08041V6.90786C16.0959 6.63542 15.2356 6.4878 14.3409 6.4878C9.90424 6.4878 6.30762 10.1187 6.30762 14.5976C6.30762 19.0765 9.90424 22.7073 14.3409 22.7073C15.2356 22.7073 16.0959 22.5597 16.8997 22.2873V28.1147Z" fill="white"/>
<path d="M19.5179 8.80488V27.3119C22.4649 25.8685 25.5875 22.7937 25.5875 18.7536C25.5875 14.7134 25.5875 11.9477 25.5875 11.9477V8.80488H19.5179Z" fill="white"/>
<path d="M26.1826 3.47561C26.1826 5.39514 24.5841 6.95122 22.6122 6.95122C20.6404 6.95122 19.0419 5.39514 19.0419 3.47561C19.0419 1.55608 20.6404 0 22.6122 0C24.5841 0 26.1826 1.55608 26.1826 3.47561Z" fill="white"/>
</g>
</svg>
